<?xml version="1.0" encoding="UTF-8"?> <!DOCTYPE svg PUBLIC "-//W3C//DTD SVG 1.1//EN" "http://www.w3.org/Graphics/SVG/1.1/DTD/svg11.dtd">  <svg xmlns="http://www.w3.org/2000/svg" xml:space="preserve" width="210mm" height="297mm" version="1.1" style="shape-rendering:geometricPrecision; text-rendering:geometricPrecision; image-rendering:optimizeQuality; fill-rule:evenodd; clip-rule:evenodd" viewBox="0 0 21000 29700" xmlns:xlink="http://www.w3.org/1999/xlink" xmlns:xodm="http://www.corel.com/coreldraw/odm/2003"> <defs> <style type="text/css"> <![CDATA[ .str0 {stroke:#F1EDD2;stroke-width:7.62;stroke-miterlimit:22.9256} .fil1 {fill:#C69830;fill-rule:nonzero} .fil0 {fill:#EFB42B;fill-rule:nonzero} .fil3 {fill:#F1EDD2;fill-rule:nonzero} .fil2 {fill:#F1EDD2;fill-rule:nonzero} ]]> </style> </defs> <g id="Camada_x0020_1"> <metadata id="CorelCorpID_0Corel-Layer"/> <circle class="fil0" cx="10500" cy="14850" r="10253.9"/> <path class="fil1" d="M20729.3 15530.86c-12.3,-16.41 -24.61,-32.81 -41.02,-49.22 -1378.13,-1374.02 -2752.15,-2752.15 -4130.27,-4126.17 -20.51,-20.51 -41.02,-41.02 -61.52,-61.52 -73.83,-69.73 -155.86,-123.05 -254.3,-139.45 -82.03,-16.41 -168.16,-20.51 -254.3,-20.51 -2780.86,0 -5557.62,0 -8338.48,0 -73.83,0 -127.15,-20.51 -180.47,-73.83 -373.24,-377.34 -750.59,-750.59 -1127.93,-1127.93 -73.83,-73.83 -155.86,-131.25 -250.2,-172.27 -254.3,-106.64 -504.49,-217.38 -758.79,-328.13 -176.37,-77.93 -352.73,-155.86 -533.2,-229.69 -221.48,-90.23 -442.97,65.63 -430.66,299.41 4.1,94.34 53.32,164.06 118.95,229.69 512.7,508.59 1021.29,1021.29 1533.98,1529.88 41.02,36.91 61.52,77.93 73.83,135.35 28.71,143.55 57.42,287.11 86.13,434.77 184.57,906.45 373.24,1808.79 557.81,2715.23 192.77,943.36 389.65,1886.72 582.42,2830.08 32.81,155.86 98.44,287.11 213.28,401.95 344.53,340.43 680.86,680.86 1025.39,1021.29 24.61,24.61 49.22,49.22 69.73,77.93 -110.74,172.27 -172.27,348.63 -184.57,541.41 -16.41,336.33 98.44,619.34 340.43,861.33 1472.46,1468.36 2940.82,2940.82 4413.28,4413.28 12.3,12.3 24.61,32.81 36.91,49.22 4130.29,-1152.53 7206.46,-4802.92 7493.57,-9212.1z"/> <path class="fil2" d="M9507.42 18377.34c-594.73,0 -1082.81,483.98 -1082.81,1082.81 0,598.83 483.98,1082.81 1082.81,1082.81 594.73,0 1082.81,-483.98 1082.81,-1082.81 0,-598.83 -488.08,-1082.81 -1082.81,-1082.81zm0 1562.7c-262.5,0 -479.88,-213.28 -479.88,-479.88 0,-266.6 213.28,-479.88 479.88,-479.88 266.6,0 479.88,213.28 479.88,479.88 -4.1,262.5 -217.38,479.88 -479.88,479.88z"/> <path class="fil2" d="M13301.37 18377.34c-594.73,0 -1082.81,483.98 -1082.81,1082.81 0,598.83 483.98,1082.81 1082.81,1082.81 598.83,0 1082.81,-483.98 1082.81,-1082.81 0,-594.72 -483.98,-1082.81 -1082.81,-1082.81zm0 1562.7c-262.5,0 -479.88,-213.28 -479.88,-479.88 0,-266.6 213.28,-479.88 479.88,-479.88 262.5,0 479.88,213.28 479.88,479.88 0,262.5 -213.28,479.88 -479.88,479.88z"/> <path class="fil3" d="M9240.82 13287.3l4331.25 0c168.16,0 303.52,-135.35 303.52,-303.52 0,-168.16 -135.35,-303.52 -303.52,-303.52l-4331.25 0.01c-168.16,0 -303.52,135.35 -303.52,303.52 0,168.16 135.36,303.51 303.52,303.51z"/> <path class="fil2 str0" d="M13334.18 14251.17l-3859.57 0c-168.16,0 -303.52,135.35 -303.52,303.52 0,168.16 135.35,303.52 303.52,303.52l3859.57 -0.01c168.16,0 303.52,-135.35 303.52,-303.52 0,-168.16 -135.36,-303.51 -303.52,-303.51z"/> <path class="fil3" d="M16516.99 11334.96c-114.84,-139.45 -287.11,-221.48 -467.58,-221.48l-9413.08 0 -188.67 -922.85c-41.02,-192.77 -172.27,-352.73 -352.73,-430.66l-1324.8 -574.22c-151.76,-65.63 -332.23,4.1 -397.85,155.86 -65.63,151.76 4.1,332.23 155.86,397.85l1324.8 574.22 1460.16 7095.7c57.42,278.91 307.62,483.98 590.63,483.98l7239.24 0c168.16,0 303.52,-135.35 303.52,-303.52 0,-168.16 -135.35,-303.52 -303.52,-303.52l-7235.16 0.01 -176.37 -861.33 7473.05 0c287.11,0 533.2,-200.98 590.63,-483.98l844.92 -4101.56c36.91,-180.48 -8.2,-360.94 -123.05,-504.5zm-1312.5 4483.01l-7596.09 0 -844.92 -4101.56 9285.94 0 -844.93 4101.56z"/> </g> </svg>