<?xml version="1.0" encoding="UTF-8"?>
<!DOCTYPE svg PUBLIC "-//W3C//DTD SVG 1.1//EN" "http://www.w3.org/Graphics/SVG/1.1/DTD/svg11.dtd">
<!-- Creator: CorelDRAW 2021 (64 Bit) -->
<svg xmlns="http://www.w3.org/2000/svg" xml:space="preserve" width="103.4mm" height="103.4mm" version="1.1" style="shape-rendering:geometricPrecision; text-rendering:geometricPrecision; image-rendering:optimizeQuality; fill-rule:evenodd; clip-rule:evenodd"
viewBox="0 0 4924.4 4924.4"
 xmlns:xlink="http://www.w3.org/1999/xlink"
 xmlns:xodm="http://www.corel.com/coreldraw/odm/2003">
 <defs>
  <style type="text/css">
   <![CDATA[
    .fil3 {fill:#EFB42B}
    .fil0 {fill:#F1EDD2}
    .fil1 {fill:#A9373E;fill-rule:nonzero}
    .fil2 {fill:#EFB42B;fill-rule:nonzero}
   ]]>
  </style>
 </defs>
 <g id="Camada_x0020_1">
  <metadata id="CorelCorpID_0Corel-Layer"/>
  <g id="_1870843084336">
   <circle class="fil0" cx="2462.2" cy="2462.2" r="2450.94"/>
   <circle class="fil0" cx="2462.2" cy="2462.2" r="2462.2"/>
   <path class="fil1" d="M826.16 2452.7c150.56,0 267.87,-86.58 267.87,-205.39 0,-141.08 -132.44,-194.76 -219.18,-229.82 -44.71,-18.45 -81.26,-32.57 -81.26,-56.84 0,-22.93 21.44,-39.55 73.62,-39.55 46.2,0 97.71,18.95 125.96,40.38 2.99,2 6.32,2.99 9.81,2.99 18.45,0 40.88,-30.25 59.82,-59.82 14.13,-21.44 27.26,-47.36 27.26,-62.82 0,-4.99 -0.83,-9.31 -3.82,-11.8 -46.7,-40.38 -128.12,-71.46 -219.02,-71.46 -153.39,0 -254.75,87.57 -254.75,206.39 0,128.45 124.63,180.63 210.38,215.7 48.69,20.44 89.57,37.89 89.57,66.64 0,24.93 -25.26,44.87 -86.24,44.87 -54.01,0 -118.15,-33.24 -148.39,-59.49 -2,-1.5 -3.99,-2.32 -6.32,-2.32 -14.63,0 -37.06,26.26 -57,53.51 -16.62,22.93 -32.08,45.7 -32.08,61.32 0,3.82 1,6.82 3.32,9.81 52.18,59.83 148.07,97.71 240.46,97.71z"/>
   <path id="_1" class="fil1" d="M1764.39 2453.2c12.3,0 23.43,0 23.43,-14.96l0 -654.4c0,-19.94 -41.38,-19.94 -83.75,-19.94 -41.88,0 -83.25,0 -83.25,19.94l0 343.16 -367.09 -363.1c-7.31,-6.32 -18.95,-6.32 -30.74,-6.32 -12.13,0 -23.76,0 -23.76,14.63l0 654.74c0,19.94 41.38,19.94 83.26,19.94 41.88,0 83.25,0 83.25,-20.44l0 -334.84 368.08 355.29c6.81,6.32 18.94,6.32 30.58,6.32z"/>
   <path id="_2" class="fil1" d="M1930.07 2446.89c47.19,0 93.89,-0.5 100.7,-15.95l35.06 -85.25 248.77 0 34.57 85.25c6.31,15.45 53.01,15.95 100.37,15.95 41.88,0 84.09,-1 84.09,-18.45 0,-2 -0.33,-4.32 -1.83,-6.82l-313.08 -654.4c-4.82,-9.64 -16.62,-9.64 -28.75,-9.64 -12.13,0 -24.26,0 -29.25,9.64l-312.58 653.91c-1.33,2.99 -1.83,5.31 -1.83,7.31 0,18.45 41.88,18.45 83.75,18.45zm260.9 -388.52l65.3 151.88 -130.61 0 65.31 -151.88z"/>
   <path id="_3" class="fil1" d="M2896.88 2452.7c91.06,0 160.2,-19.44 223.01,-63.65 4.82,-2.99 6.32,-9.8 6.32,-18.11 0,-19.94 -10.13,-50.52 -19.44,-71.96 -16.62,-37.56 -36.06,-62.32 -50.69,-62.32 -2.32,0 -4.81,0.5 -7.31,1.83 -43.21,29.25 -98.21,45.37 -149.89,45.37 -92.06,0 -173.82,-72.62 -173.82,-178.14 0,-106.19 81.76,-178.81 173.82,-178.81 51.68,0 107.18,15.62 149.89,45.87 2.5,1.5 4.49,2.32 6.82,2.32 16.62,0 36.56,-32.07 51.18,-66.14 8.81,-20.94 19.44,-50.69 19.44,-70.13 0,-7.81 -1.83,-13.63 -6.32,-16.45 -62.81,-45.37 -131.94,-63.32 -223.01,-63.32 -203.9,0 -352.46,148.4 -352.46,346.65 0,198.08 148.57,346.97 352.46,346.97z"/>
   <path id="_4" class="fil1" d="M3299.52 2446.89c41.88,0 83.25,0 83.25,-20.44l0 -278.01 212.71 284.33c9.81,14.13 60.32,14.13 111.5,14.13 43.37,0 87.24,0 87.24,-16.95 0,-2.99 -1.5,-6.32 -3.99,-10.31l-254.09 -336.34 222.01 -292.64c2.33,-3.82 3.32,-6.82 3.32,-9.81 0,-16.95 -42.38,-16.95 -85.08,-16.95 -50.19,0 -100.37,0 -109.18,14.13l-184.46 244.45 0 -238.63c0,-19.94 -41.38,-19.94 -83.25,-19.94 -42.38,0 -83.75,0 -83.75,19.94l0 643.11c0,19.94 41.38,19.94 83.75,19.94z"/>
   <path id="_5" class="fil1" d="M4074.07 2452.7c150.56,0 267.87,-86.58 267.87,-205.39 0,-141.08 -132.44,-194.76 -219.18,-229.82 -44.71,-18.45 -81.26,-32.57 -81.26,-56.84 0,-22.93 21.44,-39.55 73.62,-39.55 46.2,0 97.71,18.95 125.96,40.38 2.99,2 6.32,2.99 9.81,2.99 18.45,0 40.88,-30.25 59.82,-59.82 14.13,-21.44 27.26,-47.36 27.26,-62.82 0,-4.99 -0.83,-9.31 -3.82,-11.8 -46.7,-40.38 -128.12,-71.46 -219.02,-71.46 -153.39,0 -254.75,87.57 -254.75,206.39 0,128.45 124.63,180.63 210.38,215.7 48.69,20.44 89.57,37.89 89.57,66.64 0,24.93 -25.26,44.87 -86.24,44.87 -54.01,0 -118.15,-33.24 -148.39,-59.49 -2,-1.5 -3.99,-2.32 -6.32,-2.32 -14.63,0 -37.06,26.26 -57,53.51 -16.62,22.93 -32.08,45.7 -32.08,61.32 0,3.82 1,6.82 3.32,9.81 52.18,59.83 148.07,97.71 240.46,97.71z"/>
   <path class="fil1" d="M2114.41 3212.44c131.35,0 162.03,-47.98 162.03,-186.41l0 -362.61c0,-6.29 -3.15,-8.65 -8.65,-8.65l-77.09 0c-5.51,0 -8.65,2.36 -8.65,8.65l0 152.59c0,2.36 -0.79,3.93 -2.36,3.93 -4.72,0 -18.09,-25.96 -89.67,-25.96 -82.59,0 -140.01,33.82 -140.01,206.87 0,157.31 55.84,211.58 164.39,211.58zm-68.43 -211.58c0,-93.6 18.88,-119.56 70,-119.56 47.2,0 66.86,22.03 66.86,66.86l0.79 102.26c0,55.06 -14.94,75.51 -65.28,75.51 -51.92,0 -72.37,-23.6 -72.37,-125.06z"/>
   <path id="_1_0" class="fil1" d="M2397.57 3205.36l69.22 0c9.44,0 13.37,-3.93 13.37,-13.37l0 -377.55c0,-8.65 -4.72,-13.37 -13.37,-13.37l-67.65 0c-8.65,0 -13.37,4.72 -13.37,13.37l0 377.55c0,9.44 3.93,13.37 11.8,13.37zm-14.16 -465.65c0,9.44 4.72,14.16 13.37,14.16l72.36 0c8.65,0 13.37,-4.72 13.37,-14.16l0 -71.58c0,-8.65 -4.72,-13.37 -13.37,-13.37l-72.36 0c-8.65,0 -13.37,4.72 -13.37,13.37l0 71.58z"/>
   <path id="_2_1" class="fil1" d="M2962.33 3212.44c66.07,0 88.88,-6.29 104.61,-14.15 12.58,-5.51 17.3,-14.16 15.73,-28.32l-5.51 -45.62c-0.79,-6.3 -4.72,-10.23 -11.01,-10.23 -13.37,0 -36.97,9.43 -83.38,9.43 -85.74,0 -119.56,-26.74 -119.56,-195.07 0,-167.54 35.39,-191.14 122.7,-189.56 38.54,0 73.15,8.65 81.81,8.65 5.51,0 9.44,-4.71 10.23,-9.43l6.29 -61.35c1.58,-10.23 -4.72,-17.3 -14.16,-20.45 -18.09,-3.93 -50.34,-8.65 -107.76,-8.65 -154.96,0 -202.15,88.1 -202.15,280.81 0,187.99 47.98,286.31 202.15,283.95z"/>
   <path id="_3_2" class="fil1" d="M3191.22 3205.36l73.94 0c6.29,0 10.23,-3.15 10.23,-10.23l0 -246.2c0,-47.98 17.3,-68.43 65.28,-68.43 45.62,0 58.99,18.88 58.99,68.43l0 246.2c0,7.08 3.15,10.23 10.23,10.23l73.15 0c7.08,0 11.01,-3.15 11.01,-10.23l0 -257.21c0,-88.1 -23.6,-143.94 -123.49,-143.94 -43.26,0 -72.36,11.01 -92.03,33.04 -0.79,1.57 -1.58,2.36 -3.15,2.36 -0.79,0 -1.57,-0.79 -1.57,-2.36l0.79 -161.25c0,-5.51 -4.72,-11.01 -12.59,-11.01l-69.22 0c-7.86,0 -11.8,5.51 -11.8,11.01l0 529.36c0,7.08 3.14,10.23 10.23,10.23z"/>
   <path id="_4_3" class="fil1" d="M3612.03 3205.36l70.79 0c7.86,0 11.8,-5.51 11.8,-11.01l0 -269.79c0,-33.82 10.23,-44.83 36.97,-44.83 18.09,0 51.92,4.72 58.99,4.72 7.87,0 11.8,-5.51 13.37,-14.16l4.72 -34.61c2.36,-19.66 0,-26.74 -17.31,-31.46 -15.73,-4.72 -40.9,-10.23 -84.16,-10.23 -78.65,0 -106.97,34.61 -106.97,120.34l0 280.02c0,5.51 3.93,11.01 11.8,11.01z"/>
   <path id="_5_4" class="fil1" d="M3899.13 3205.36l69.22 0c9.44,0 13.37,-3.93 13.37,-13.37l0 -377.55c0,-8.65 -4.72,-13.37 -13.37,-13.37l-67.65 0c-8.65,0 -13.37,4.72 -13.37,13.37l0 377.55c0,9.44 3.93,13.37 11.8,13.37zm-14.16 -465.65c0,9.44 4.72,14.16 13.37,14.16l72.36 0c8.65,0 13.37,-4.72 13.37,-14.16l0 -71.58c0,-8.65 -4.72,-13.37 -13.37,-13.37l-72.36 0c-8.65,0 -13.37,4.72 -13.37,13.37l0 71.58z"/>
   <path id="_6" class="fil1" d="M4188.59 3212.44c110.9,0 153.38,-41.69 153.38,-124.28 0,-64.5 -25.17,-86.52 -77.09,-110.9l-40.11 -18.88c-36.18,-16.52 -59.78,-23.6 -59.78,-51.13 0,-25.96 22.81,-33.04 57.42,-33.04 35.4,0 74.72,6.29 88.88,6.29 9.44,0 11.8,-4.72 13.37,-14.16l6.29 -40.11c1.58,-11.01 -2.36,-18.09 -10.23,-21.24 -18.09,-6.29 -60.56,-11.01 -106.18,-11.01 -94.39,0 -142.37,26.74 -142.37,108.55 0,69.22 31.46,92.82 75.51,114.05l51.92 25.17c35.39,18.09 49.55,25.17 49.55,50.34 0,25.17 -14.94,40.9 -66.86,40.9 -46.41,0 -77.87,-7.08 -88.88,-7.08 -7.08,0 -10.23,3.15 -11.01,9.44l-5.51 45.62c-1.57,11.8 3.15,19.66 14.94,22.81 17.3,3.93 63.71,8.65 96.75,8.65z"/>
   <path class="fil2" d="M880.25 3865.65l26.34 0c3.76,0 5.64,-2.81 5.64,-8.43l0 -474.94c0,-5.62 -1.88,-8.43 -5.64,-8.43l-26.34 0c-3.76,0 -5.64,2.81 -5.64,8.43l0 474.94c0,5.62 1.88,8.43 5.64,8.43z"/>
   <path id="_1_5" class="fil2" d="M1059.89 3871.27c67.71,0 87.93,-45.67 87.93,-185.48 0,-137.7 -20.22,-182.67 -87.93,-182.67 -67.72,0 -87.94,44.97 -87.94,182.67 0,139.81 20.22,185.48 87.94,185.48zm-49.38 -185.48c0,-106.79 11.75,-131.38 49.38,-131.38 38.09,0 49.37,25.29 49.37,131.38 0,107.49 -11.29,134.19 -49.37,134.19 -38.1,0 -49.38,-26.7 -49.38,-134.19z"/>
   <path id="_2_6" class="fil2" d="M1223.06 3453.94l28.22 0c3.76,0 5.64,-3.51 5.64,-8.43l0 -63.23c0,-5.62 -2.35,-8.43 -5.64,-8.43l-28.22 0c-3.76,0 -5.64,2.81 -5.64,8.43l0 63.23c0,4.92 1.88,8.43 5.64,8.43zm-76.18 522.71c-0.47,9.83 0.94,14.05 6.58,16.16 7.52,3.51 21.16,6.32 38.09,6.32 46.56,0 64.43,-29.51 64.43,-108.19l0 -374.47c0,-3.51 -1.88,-7.02 -5.17,-7.02l-27.27 0c-3.29,0 -5.17,3.51 -5.17,7.02l0 368.85c0,49.88 -9.41,62.53 -34.79,62.53 -15.05,0 -25.4,-4.21 -30.1,-4.21 -2.35,0 -4.23,2.11 -4.7,7.73l-1.88 25.29z"/>
   <path id="_3_7" class="fil2" d="M1381.07 3871.27c33.38,0 50.32,-23.89 58.78,-40.05 3.29,-7.02 3.76,-8.43 5.64,-8.43 0.94,0 1.88,0.7 1.88,4.92l1.88 31.61c0.47,4.21 2.82,6.32 6.58,6.32l17.87 0c3.29,0 5.17,-3.51 5.17,-7.02l0 -217.8c0,-109.6 -25.87,-137.71 -84.64,-137.71 -25.4,0 -46.56,5.62 -59.25,12.65 -6.11,3.51 -7.05,7.72 -6.58,16.86l2.35 21.78c0.47,5.62 1.88,9.13 5.64,9.13 6.12,0 29.16,-10.54 54.55,-10.54 37.62,0 50.32,16.16 50.32,86.42 0,7.02 -1.88,10.53 -6.59,10.53l-44.21 0c-51.25,0 -74.77,30.21 -74.77,105.39 0,82.2 18.34,115.92 65.36,115.92zm-29.16 -115.92c0,-45.67 12.7,-60.42 47.02,-60.42l37.62 0c3.29,0 5.17,2.11 5.17,8.43l0 40.75c0,47.77 -17.4,80.09 -51.73,80.09 -25.87,0 -38.09,-14.05 -38.09,-68.85z"/>
   <path id="_4_8" class="fil2" d="M1727.64 3871.27c68.65,0 86.05,-37.24 86.05,-142.62l0 -349.18c0,-4.21 -1.4,-5.62 -3.76,-5.62l-30.09 0c-2.35,0 -3.77,1.4 -3.77,5.62l0 147.54c0,1.4 -0.47,2.81 -1.41,2.81 -2.82,0 -12.23,-26.7 -56.43,-26.7 -49.37,0 -79.47,28.81 -79.47,182.67 0,144.73 29.15,185.48 88.88,185.48zm-50.32 -185.48c0,-109.6 15.52,-130.68 50.32,-130.68 34.79,0 48.9,22.48 48.9,68.85l0 117.33c0,57.61 -10.82,78.69 -47.5,78.69 -37.15,0 -51.73,-21.78 -51.73,-134.19z"/>
   <path id="_5_9" class="fil2" d="M1966.52 3870.57c27.27,0 50.32,-7.03 60.19,-14.05 5.17,-3.51 7.99,-10.54 6.58,-19.67l-2.82 -19.67c-0.94,-5.62 -2.82,-8.43 -6.11,-8.43 -6.12,0 -27.27,12.64 -54.55,12.64 -42.32,0 -59.25,-17.56 -59.25,-103.28l0 -5.62c0,-2.11 0.94,-3.51 2.82,-3.51l106.75 0c14.58,0 21.16,-9.13 21.16,-30.91l0 -18.26c0,-115.93 -24.45,-156.68 -80.41,-156.68 -58.78,0 -87.93,34.43 -87.93,183.37 0,146.84 27.27,184.07 93.58,184.07zm-55.96 -210.07c0,-89.93 16.93,-108.19 50.79,-108.19 30.09,0 45.61,16.86 45.61,108.9 0,2.81 -0.47,4.21 -2.35,4.21l-90.76 0c-2.35,0 -3.29,-1.4 -3.29,-4.92z"/>
   <path id="_6_10" class="fil2" d="M2273.12 3999.14c70.54,0 92.17,-49.88 92.17,-139.11l0 -342.86c0,-5.62 -1.88,-8.43 -5.64,-8.43l-9.87 0c-4.71,0 -8,2.11 -10.35,9.84l-3.29 21.07c-0.94,6.32 -1.88,4.92 -4.7,-0.7 -11.29,-22.48 -30.09,-35.83 -57.37,-35.83 -63.48,0 -86.05,48.48 -86.05,172.83 0,139.11 29.63,177.05 82.29,177.05 30.57,0 45.14,-16.16 56.43,-35.83l0.94 0 0 38.64c0,61.12 -7.52,93.44 -57.84,93.44 -23.05,0 -46.09,-7.73 -52.2,-7.73 -4.23,0 -5.64,3.51 -6.12,9.84l-1.88 23.18c-0.94,8.43 0.47,11.94 5.18,14.75 7.52,3.51 28.21,9.83 58.31,9.83zm-46.55 -323.18c0,-96.25 15.52,-121.55 54.54,-121.55 31.51,0 46.56,26 46.56,61.13l0 102.57c0,33.72 -4.23,50.59 -9.41,59.02 -8.46,13.35 -18.81,23.89 -41.85,23.89 -30.57,0 -49.84,-24.59 -49.84,-125.06z"/>
   <path id="_7" class="fil2" d="M2512.48 3871.27c67.71,0 87.93,-45.67 87.93,-185.48 0,-137.7 -20.22,-182.67 -87.93,-182.67 -67.72,0 -87.94,44.97 -87.94,182.67 0,139.81 20.22,185.48 87.94,185.48zm-49.38 -185.48c0,-106.79 11.76,-131.38 49.38,-131.38 38.09,0 49.37,25.29 49.37,131.38 0,107.49 -11.28,134.19 -49.37,134.19 -38.1,0 -49.38,-26.7 -49.38,-134.19z"/>
   <path id="_8" class="fil2" d="M2712.33 3871.27c61.6,0 83.23,-37.94 83.23,-106.09 0,-51.29 -14.11,-70.26 -47.49,-94.14l-26.81 -18.97c-24.45,-17.56 -36.68,-27.4 -36.68,-59.02 0,-33.72 17.87,-41.45 43.73,-41.45 21.63,0 45.61,4.92 52.2,4.92 4.23,0 5.17,-2.81 5.64,-8.43l2.35 -23.19c0.47,-7.72 -0.94,-11.94 -5.64,-14.05 -8.93,-4.21 -31.04,-7.73 -57.84,-7.73 -50.79,0 -77.59,21.78 -77.59,87.12 0,60.42 17.87,78.69 44.67,98.36l31.04 23.18c26.33,19.67 35.27,28.1 35.27,58.32 0,31.61 -11.28,52.69 -47.96,52.69 -27.27,0 -47.5,-5.62 -53.13,-5.62 -3.3,0 -4.71,2.81 -4.71,7.02l-1.88 25.99c-0.47,7.73 0.94,12.65 7.05,14.75 8.93,2.81 31.51,6.32 54.55,6.32z"/>
   <path id="_9" class="fil2" d="M2915.01 3871.27c9.41,0 20.69,-1.4 32.45,-7.02 5.64,-2.81 7.99,-6.32 7.05,-14.05l-2.35 -28.1c0,-4.92 -1.88,-7.73 -4.71,-7.73 -4.23,0 -13.64,4.21 -27.74,4.21 -26.34,0 -32.92,-12.64 -32.92,-45.67l0 -208.66c0,-3.51 1.41,-5.62 3.76,-5.62l51.26 0c3.76,0 5.64,-3.51 5.64,-8.43l0 -33.02c0,-5.62 -2.35,-8.43 -5.64,-8.43l-49.22 0c-4.23,0 -6.58,-2.11 -7.05,-8.43l-2.35 -53.4c-1.1,-7.02 -2.98,-11.24 -8.15,-11.24l-20.69 0c-3.3,0 -5.18,3.51 -5.18,7.73l0 333.02c0,65.34 13.17,94.84 65.84,94.84z"/>
   <path id="_10" class="fil2" d="M3080.54 3871.27c67.71,0 87.93,-45.67 87.93,-185.48 0,-137.7 -20.22,-182.67 -87.93,-182.67 -67.72,0 -87.94,44.97 -87.94,182.67 0,139.81 20.22,185.48 87.94,185.48zm-49.38 -185.48c0,-106.79 11.76,-131.38 49.38,-131.38 38.09,0 49.37,25.29 49.37,131.38 0,107.49 -11.28,134.19 -49.37,134.19 -38.1,0 -49.38,-26.7 -49.38,-134.19z"/>
   <path id="_11" class="fil2" d="M3280.39 3871.27c61.6,0 83.23,-37.94 83.23,-106.09 0,-51.29 -14.11,-70.26 -47.49,-94.14l-26.81 -18.97c-24.45,-17.56 -36.68,-27.4 -36.68,-59.02 0,-33.72 17.87,-41.45 43.73,-41.45 21.63,0 45.61,4.92 52.2,4.92 4.23,0 5.17,-2.81 5.64,-8.43l2.35 -23.19c0.47,-7.72 -0.94,-11.94 -5.64,-14.05 -8.93,-4.21 -31.04,-7.73 -57.84,-7.73 -50.79,0 -77.59,21.78 -77.59,87.12 0,60.42 17.87,78.69 44.67,98.36l31.04 23.18c26.33,19.67 35.27,28.1 35.27,58.32 0,31.61 -11.28,52.69 -47.96,52.69 -27.27,0 -47.5,-5.62 -53.13,-5.62 -3.3,0 -4.71,2.81 -4.71,7.02l-1.88 25.99c-0.47,7.73 0.94,12.65 7.05,14.75 8.93,2.81 31.51,6.32 54.55,6.32z"/>
   <path id="_12" class="fil2" d="M3500.47 3871.27c62.54,0 82.29,-33.72 82.29,-138.41l0 -215.69c0,-5.62 -1.88,-8.43 -5.64,-8.43l-26.33 0c-3.76,0 -5.65,2.81 -5.65,8.43l0 224.12c0,63.94 -11.28,78.69 -44.67,78.69 -33.39,0 -45.61,-14.75 -45.61,-78.69l0 -224.12c0,-5.62 -1.88,-8.43 -5.64,-8.43l-26.34 0c-3.76,0 -5.64,2.81 -5.64,8.43l0 215.69c0,104.68 19.75,138.41 83.24,138.41z"/>
   <path id="_13" class="fil2" d="M3656.59 3865.65l27.27 0c3.3,0 5.18,-3.51 5.18,-7.02l0 -258.55c0,-36.53 8.46,-45.67 29.62,-45.67 11.76,0 31.51,4.21 34.33,4.21 3.76,0 5.64,-2.81 6.12,-8.43l1.41 -20.37c0.94,-11.94 0,-16.16 -8,-19.67 -7.05,-2.81 -21.63,-7.02 -42.32,-7.02 -43.73,0 -58.78,25.29 -58.78,92.74l0 262.76c0,3.51 1.88,7.02 5.18,7.02z"/>
   <path id="_14" class="fil2" d="M3862.08 3871.27c33.39,0 50.32,-23.89 58.78,-40.05 3.29,-7.02 3.76,-8.43 5.64,-8.43 0.94,0 1.88,0.7 1.88,4.92l1.88 31.61c0.47,4.21 2.82,6.32 6.58,6.32l17.87 0c3.3,0 5.17,-3.51 5.17,-7.02l0 -217.8c0,-109.6 -25.86,-137.71 -84.64,-137.71 -25.39,0 -46.55,5.62 -59.25,12.65 -6.12,3.51 -7.05,7.72 -6.59,16.86l2.35 21.78c0.47,5.62 1.88,9.13 5.64,9.13 6.12,0 29.16,-10.54 54.55,-10.54 37.62,0 50.32,16.16 50.32,86.42 0,7.02 -1.88,10.53 -6.58,10.53l-44.21 0c-51.26,0 -74.77,30.21 -74.77,105.39 0,82.2 18.35,115.92 65.36,115.92zm-29.16 -115.92c0,-45.67 12.7,-60.42 47.03,-60.42l37.62 0c3.29,0 5.17,2.11 5.17,8.43l0 40.75c0,47.77 -17.4,80.09 -51.73,80.09 -25.87,0 -38.1,-14.05 -38.1,-68.85z"/>
   <path id="_15" class="fil2" d="M4083.1 3871.27c61.6,0 83.23,-37.94 83.23,-106.09 0,-51.29 -14.11,-70.26 -47.49,-94.14l-26.81 -18.97c-24.45,-17.56 -36.68,-27.4 -36.68,-59.02 0,-33.72 17.87,-41.45 43.73,-41.45 21.63,0 45.61,4.92 52.2,4.92 4.23,0 5.17,-2.81 5.64,-8.43l2.35 -23.19c0.47,-7.72 -0.94,-11.94 -5.64,-14.05 -8.93,-4.21 -31.03,-7.73 -57.84,-7.73 -50.79,0 -77.59,21.78 -77.59,87.12 0,60.42 17.87,78.69 44.67,98.36l31.04 23.18c26.34,19.67 35.27,28.1 35.27,58.32 0,31.61 -11.29,52.69 -47.97,52.69 -27.27,0 -47.49,-5.62 -53.13,-5.62 -3.3,0 -4.71,2.81 -4.71,7.02l-1.88 25.99c-0.47,7.73 0.94,12.65 7.05,14.75 8.93,2.81 31.51,6.32 54.55,6.32z"/>
   <path id="tracos_x0020_circulares" class="fil3" d="M255.48 2014.41c-61.72,311.08 -80.46,633.51 -17.85,961.01 17.91,93.68 54.13,199.51 67.22,284.88 -39.75,-60.65 -96.93,-291.34 -113.76,-383 -105.79,-576.02 -3.28,-1134.43 306.81,-1611.06 35.37,-54.37 66.1,-95.17 103.59,-147.57 155.97,-218 424.93,-459.82 645.54,-597.05 926.79,-576.54 1918.64,-489.73 2777.96,154.48 41.48,31.1 108.79,96.77 140.21,111.78 -43.18,-72.33 -309.21,-259.18 -393.47,-312.83 -501.08,-319.08 -1097.01,-433.1 -1698.81,-340.84 -443.36,67.97 -773.65,273.28 -1079.55,495.55 -16.91,12.29 -33.18,24.6 -47.19,35.93 -18.78,15.18 -30.77,29.4 -47.43,43.51 -92.58,78.39 -259.81,277.64 -333.24,380.35 -269.73,377.3 -442.37,820.58 -444.81,1339.47 -2.53,539.57 148.2,972.68 433.43,1351.34l58.99 72.29c25.88,20.89 61.25,7.86 17.92,-50.8 -11.11,-15.03 -25.91,-39.19 -36.74,-54.21 -101.87,-141.33 -162.16,-289.75 -239.9,-469.36 -70.13,-162.04 -112.62,-393.62 -127.47,-587.66 -8.85,-115.69 -10,-238.18 -4.81,-354.2 6.91,-154.82 25.86,-216.69 33.37,-322.01zm423.11 1979.76c72,102.22 303.86,293.57 417.46,374.75 540.02,385.89 1192.3,519.95 1867.74,387.77 209.2,-40.94 412.88,-118.12 583.78,-205.19 302.03,-153.87 652.53,-452.52 840.79,-741.3 68.43,-104.98 251.63,-390.5 269.76,-514.57 -4.13,80.04 -233.38,437.4 -283.13,500.38 -87.92,111.3 -217.65,262.38 -327.88,362.61 -140.6,127.86 -321.88,256.84 -517.64,351.66 -893.56,432.8 -1911.04,307.04 -2655.11,-328.7 -95.52,-81.61 -125.88,-123.53 -195.78,-187.41zm4125.46 -1421.67c25.85,-9.98 18.65,-50.67 18.32,-81.82 -2.4,-221.52 -22.26,-407.64 -77.67,-623.44 -85.41,-332.67 -209.78,-541.34 -402.03,-787.28 -148.45,-189.89 -429.3,-421.37 -655.93,-519.31 408.23,234.29 730.48,579.32 917.81,1026.45 100.3,239.41 132.23,353.85 168.54,619.38 7.66,55.98 17.78,348.64 30.96,366.02z"/>
   <path id="chapeu" class="fil3" d="M2250.05 1367.43c4.63,-11.65 23.08,-16.63 37.07,-20.39 -7.75,11.4 -24.65,20.87 -37.07,20.39zm-13.61 -15.23c7.86,-11.3 13.97,-13.73 29.69,-21.45 4.15,-2.03 14.7,-7.12 18.76,-8.34l20.67 -0.58c-8.8,10.54 -56.04,33.03 -69.13,30.37zm-5.78 -22.4c13.84,-13.17 51.4,-34.79 69.23,-30.41 -12.58,14.53 -52.58,34.11 -69.23,30.41zm81.71 -125.29c-19.45,-47.28 -42.94,-97.32 -64.39,-145.26 -15.41,-34.44 -54.96,-112.33 -61.17,-144.68l59.09 -20.35 111.77 295.27 -45.29 15.03zm271.08 -67.96c-23.85,-93.96 -22.25,-219.7 -38.64,-313.84l49.79 -14.08 30.38 327.56 -41.53 0.35zm-199.14 -296.26l41.62 -10.68c19.85,36.4 54.49,259.34 70.85,322.02l-43.43 9.88 -69.04 -321.22zm-314.28 109.03c28.61,47.79 54.99,97.24 81.69,144.53 18.19,32.22 70.09,118.93 77.9,147.32l-31.81 17.15c-13.49,-11.55 -159.51,-256.88 -172.8,-286.8l45.01 -22.21zm-108.47 -317.68c-78.46,26.03 -136.14,48.14 -185.44,102.48 -166.77,183.84 -22.83,421.34 196,378.37l-71.56 -119.31 31.08 -1.17c126.58,191.08 174.39,293.58 260.76,504.67 71.35,-27.18 87.57,-70.53 276.63,-124.82 53.22,-15.28 105.15,-27.05 158.71,-34.4 33.87,-4.65 117.31,-3 136.67,-8.89 -40.03,-180.03 -73.71,-391.22 -79.72,-567.24l32.95 -13.2 7.75 133.53c124.93,-30.28 204.97,-190.92 111.87,-325.65 -112.65,-163.03 -360.62,-79.39 -360.7,-79.4 -21.75,-10.73 -40.36,-31.29 -60.7,-42.61 -124.06,-69 -342.12,-27.49 -428.42,131.13 -13.92,25.58 -15.11,37.57 -25.9,66.5z"/>
  </g>
 </g>
</svg>
