<?xml version="1.0" encoding="UTF-8"?> <!DOCTYPE svg PUBLIC "-//W3C//DTD SVG 1.1//EN" "http://www.w3.org/Graphics/SVG/1.1/DTD/svg11.dtd"> <svg xmlns="http://www.w3.org/2000/svg" xml:space="preserve" width="80.0001mm" height="80.0001mm" version="1.1" style="shape-rendering:geometricPrecision; text-rendering:geometricPrecision; image-rendering:optimizeQuality; fill-rule:evenodd; clip-rule:evenodd" viewBox="0 0 3964.35 3964.35" xmlns:xlink="http://www.w3.org/1999/xlink" xmlns:xodm="http://www.corel.com/coreldraw/odm/2003"> <defs> <style type="text/css"> <![CDATA[ .fil4 {fill:#EFB42B} .fil1 {fill:#F1EDD2} .fil0 {fill:#F1EDD2} .fil5 {fill:#F4C01D} .fil2 {fill:#A9373E;fill-rule:nonzero} .fil3 {fill:#EFB42B;fill-rule:nonzero} ]]> </style> </defs> <g id="Camada_x0020_1"> <metadata id="CorelCorpID_0Corel-Layer"/> <g id="_1928736308320"> <circle class="fil0" cx="1982.17" cy="1982.17" r="1982.17"/> <circle class="fil1" cx="1982.17" cy="1982.17" r="1947.06"/> <path class="fil2" d="M682.48 1974.63c119.6,0 212.81,-68.78 212.81,-163.17 0,-112.08 -105.21,-154.72 -174.12,-182.57 -35.52,-14.66 -64.56,-25.88 -64.56,-45.15 0,-18.22 17.03,-31.42 58.48,-31.42 36.7,0 77.63,15.05 100.07,32.08 2.37,1.58 5.01,2.37 7.78,2.37 14.66,0 32.48,-24.02 47.53,-47.52 11.22,-17.03 21.65,-37.63 21.65,-49.9 0,-3.96 -0.66,-7.39 -3.04,-9.38 -37.1,-32.08 -101.78,-56.76 -173.99,-56.76 -121.85,0 -202.38,69.57 -202.38,163.96 0,102.05 99.01,143.5 167.13,171.35 38.68,16.24 71.15,30.1 71.15,52.94 0,19.8 -20.06,35.64 -68.51,35.64 -42.9,0 -93.86,-26.4 -117.89,-47.26 -1.59,-1.19 -3.17,-1.85 -5.01,-1.85 -11.62,0 -29.44,20.86 -45.28,42.51 -13.2,18.22 -25.48,36.3 -25.48,48.72 0,3.03 0.79,5.41 2.64,7.78 41.45,47.53 117.63,77.63 191.03,77.63z"/> <path id="_1" class="fil2" d="M1427.83 1975.02c9.77,0 18.61,0 18.61,-11.88l0 -519.87c0,-15.84 -32.87,-15.84 -66.54,-15.84 -33.27,0 -66.14,0 -66.14,15.84l0 272.61 -291.62 -288.46c-5.81,-5.01 -15.05,-5.01 -24.43,-5.01 -9.64,0 -18.88,0 -18.88,11.62l0 520.14c0,15.84 32.87,15.84 66.14,15.84 33.27,0 66.14,0 66.14,-16.24l0 -266.01 292.41 282.25c5.41,5.01 15.05,5.01 24.29,5.01z"/> <path id="_2" class="fil2" d="M1559.45 1970.01c37.49,0 74.59,-0.4 80,-12.68l27.85 -67.72 197.63 0 27.46 67.72c5.02,12.28 42.12,12.68 79.74,12.68 33.27,0 66.8,-0.79 66.8,-14.66 0,-1.58 -0.26,-3.43 -1.45,-5.41l-248.71 -519.87c-3.83,-7.66 -13.2,-7.66 -22.84,-7.66 -9.64,0 -19.28,0 -23.24,7.66l-248.32 519.48c-1.06,2.38 -1.45,4.23 -1.45,5.81 0,14.66 33.27,14.66 66.54,14.66zm207.27 -308.65l51.88 120.66 -103.76 0 51.88 -120.66z"/> <path id="_3" class="fil2" d="M2327.51 1974.63c72.34,0 127.26,-15.45 177.16,-50.56 3.83,-2.38 5.02,-7.79 5.02,-14.39 0,-15.84 -8.05,-40.13 -15.45,-57.16 -13.2,-29.84 -28.65,-49.51 -40.27,-49.51 -1.85,0 -3.83,0.4 -5.81,1.45 -34.32,23.24 -78.02,36.04 -119.08,36.04 -73.13,0 -138.08,-57.69 -138.08,-141.52 0,-84.36 64.95,-142.05 138.08,-142.05 41.06,0 85.15,12.41 119.08,36.44 1.98,1.19 3.56,1.85 5.41,1.85 13.21,0 29.04,-25.48 40.66,-52.54 7,-16.63 15.45,-40.26 15.45,-55.71 0,-6.2 -1.45,-10.83 -5.02,-13.07 -49.9,-36.04 -104.82,-50.3 -177.16,-50.3 -161.98,0 -280.01,117.89 -280.01,275.38 0,157.36 118.02,275.65 280.01,275.65z"/> <path id="_4" class="fil2" d="M2647.39 1970.01c33.27,0 66.14,0 66.14,-16.24l0 -220.86 168.98 225.88c7.79,11.22 47.92,11.22 88.58,11.22 34.46,0 69.31,0 69.31,-13.47 0,-2.37 -1.18,-5.01 -3.17,-8.18l-201.85 -267.2 176.37 -232.48c1.85,-3.03 2.64,-5.41 2.64,-7.79 0,-13.46 -33.66,-13.46 -67.59,-13.46 -39.87,0 -79.74,0 -86.73,11.22l-146.54 194.19 0 -189.57c0,-15.84 -32.87,-15.84 -66.14,-15.84 -33.67,0 -66.54,0 -66.54,15.84l0 510.9c0,15.84 32.87,15.84 66.54,15.84z"/> <path id="_5" class="fil2" d="M3262.71 1974.63c119.6,0 212.81,-68.78 212.81,-163.17 0,-112.08 -105.21,-154.72 -174.12,-182.57 -35.52,-14.66 -64.56,-25.88 -64.56,-45.15 0,-18.22 17.03,-31.42 58.48,-31.42 36.7,0 77.63,15.05 100.07,32.08 2.37,1.58 5.01,2.37 7.78,2.37 14.66,0 32.48,-24.02 47.53,-47.52 11.22,-17.03 21.65,-37.63 21.65,-49.9 0,-3.96 -0.66,-7.39 -3.04,-9.38 -37.1,-32.08 -101.78,-56.76 -173.99,-56.76 -121.85,0 -202.38,69.57 -202.38,163.96 0,102.05 99.01,143.5 167.13,171.35 38.68,16.24 71.15,30.1 71.15,52.94 0,19.8 -20.06,35.64 -68.51,35.64 -42.9,0 -93.86,-26.4 -117.89,-47.26 -1.59,-1.19 -3.17,-1.85 -5.01,-1.85 -11.62,0 -29.44,20.86 -45.28,42.51 -13.2,18.22 -25.48,36.3 -25.48,48.72 0,3.03 0.79,5.41 2.64,7.78 41.45,47.53 117.63,77.63 191.03,77.63z"/> <path class="fil2" d="M1705.88 2578.18c104.36,0 128.72,-38.12 128.72,-148.09l0 -288.07c0,-5 -2.5,-6.87 -6.87,-6.87l-61.23 0c-4.38,0 -6.87,1.88 -6.87,6.87l0 121.22c0,1.88 -0.62,3.13 -1.88,3.13 -3.75,0 -14.37,-20.62 -71.23,-20.62 -65.61,0 -111.22,26.87 -111.22,164.34 0,124.97 44.37,168.09 130.6,168.09zm-54.36 -168.09c0,-74.36 15,-94.98 55.61,-94.98 37.49,0 53.12,17.49 53.12,53.11l0.62 81.23c0,43.74 -11.87,59.99 -51.86,59.99 -41.24,0 -57.49,-18.75 -57.49,-99.35z"/> <path id="_1_0" class="fil2" d="M1930.83 2572.55l54.99 0c7.5,0 10.62,-3.12 10.62,-10.62l0 -299.94c0,-6.87 -3.75,-10.62 -10.62,-10.62l-53.74 0c-6.87,0 -10.62,3.75 -10.62,10.62l0 299.94c0,7.5 3.12,10.62 9.37,10.62zm-11.24 -369.92c0,7.5 3.75,11.25 10.62,11.25l57.49 0c6.87,0 10.62,-3.75 10.62,-11.25l0 -56.86c0,-6.87 -3.75,-10.62 -10.62,-10.62l-57.49 0c-6.87,0 -10.62,3.75 -10.62,10.62l0 56.86z"/> <path id="_2_1" class="fil2" d="M2379.49 2578.18c52.49,0 70.61,-5 83.11,-11.25 10,-4.38 13.75,-11.25 12.5,-22.49l-4.38 -36.24c-0.62,-5 -3.75,-8.12 -8.75,-8.12 -10.62,0 -29.37,7.5 -66.23,7.5 -68.11,0 -94.98,-21.25 -94.98,-154.97 0,-133.1 28.12,-151.84 97.48,-150.6 30.62,0 58.11,6.87 64.99,6.87 4.38,0 7.5,-3.75 8.13,-7.5l5 -48.74c1.25,-8.12 -3.75,-13.75 -11.24,-16.24 -14.38,-3.13 -40,-6.87 -85.61,-6.87 -123.1,0 -160.59,69.98 -160.59,223.08 0,149.34 38.12,227.45 160.59,225.58z"/> <path id="_3_2" class="fil2" d="M2561.33 2572.55l58.74 0c5,0 8.12,-2.5 8.12,-8.12l0 -195.59c0,-38.12 13.75,-54.36 51.87,-54.36 36.24,0 46.86,15 46.86,54.36l0 195.59c0,5.62 2.5,8.12 8.12,8.12l58.11 0c5.62,0 8.75,-2.5 8.75,-8.12l0 -204.33c0,-69.99 -18.75,-114.35 -98.11,-114.35 -34.37,0 -57.49,8.75 -73.11,26.24 -0.62,1.25 -1.25,1.87 -2.5,1.87 -0.62,0 -1.25,-0.62 -1.25,-1.87l0.62 -128.1c0,-4.38 -3.75,-8.75 -10,-8.75l-54.99 0c-6.25,0 -9.37,4.38 -9.37,8.75l0 420.54c0,5.62 2.5,8.12 8.12,8.12z"/> <path id="_4_3" class="fil2" d="M2895.63 2572.55l56.24 0c6.25,0 9.37,-4.38 9.37,-8.75l0 -214.33c0,-26.87 8.13,-35.62 29.37,-35.62 14.37,0 41.24,3.75 46.86,3.75 6.25,0 9.38,-4.38 10.62,-11.25l3.75 -27.49c1.87,-15.62 0,-21.24 -13.75,-25 -12.49,-3.75 -32.49,-8.12 -66.86,-8.12 -62.49,0 -84.98,27.49 -84.98,95.61l0 222.45c0,4.37 3.12,8.75 9.37,8.75z"/> <path id="_5_4" class="fil2" d="M3123.71 2572.55l54.99 0c7.5,0 10.62,-3.12 10.62,-10.62l0 -299.94c0,-6.87 -3.75,-10.62 -10.62,-10.62l-53.74 0c-6.87,0 -10.62,3.75 -10.62,10.62l0 299.94c0,7.5 3.12,10.62 9.37,10.62zm-11.24 -369.92c0,7.5 3.75,11.25 10.62,11.25l57.49 0c6.87,0 10.62,-3.75 10.62,-11.25l0 -56.86c0,-6.87 -3.75,-10.62 -10.62,-10.62l-57.49 0c-6.87,0 -10.62,3.75 -10.62,10.62l0 56.86z"/> <path id="_6" class="fil2" d="M3353.66 2578.18c88.11,0 121.85,-33.12 121.85,-98.73 0,-51.24 -20,-68.73 -61.24,-88.1l-31.87 -15c-28.74,-13.12 -47.49,-18.75 -47.49,-40.61 0,-20.62 18.12,-26.24 45.61,-26.24 28.12,0 59.36,5 70.61,5 7.5,0 9.38,-3.75 10.62,-11.25l5 -31.87c1.25,-8.75 -1.88,-14.37 -8.13,-16.87 -14.37,-5 -48.11,-8.75 -84.36,-8.75 -74.99,0 -113.1,21.24 -113.1,86.23 0,54.99 25,73.74 59.99,90.61l41.24 20c28.12,14.37 39.37,20 39.37,39.99 0,20 -11.87,32.49 -53.11,32.49 -36.87,0 -61.86,-5.62 -70.61,-5.62 -5.62,0 -8.12,2.5 -8.75,7.5l-4.38 36.24c-1.25,9.37 2.5,15.62 11.87,18.12 13.75,3.12 50.61,6.87 76.86,6.87z"/> <path class="fil3" d="M1306.36 3078.61c55.75,0 82.97,-25.9 82.97,-118.09 0,-94.38 -28.1,-111.94 -74.19,-111.94 -22.83,0 -38.63,4.39 -47.41,12.29 -3.95,3.07 -4.83,4.83 -5.71,4.83 -0.44,0 -0.88,0 -0.88,-1.32l0 -93.07c0,-2.63 -1.32,-3.51 -3.51,-3.51l-28.09 0c-2.2,0 -3.51,0.88 -3.51,3.51l0 222.57c0,61.46 17.56,84.73 80.34,84.73zm-45.65 -76.39l0 -80.77c0,-25.9 14.48,-40.39 45.65,-40.39 32.48,0 46.97,12.73 46.97,79.46 0,72.43 -13.61,86.05 -48.29,86.05 -32.92,0 -44.34,-12.73 -44.34,-44.34z"/> <path id="_1_5" class="fil3" d="M1496.44 3078.61c31.17,0 46.98,-14.93 54.88,-25.02 3.07,-4.39 3.51,-5.27 5.27,-5.27 0.88,0 1.76,0.44 1.76,3.07l1.75 19.76c0.44,2.63 2.63,3.95 6.14,3.95l16.68 0c3.07,0 4.83,-2.2 4.83,-4.39l0 -136.09c0,-68.48 -24.14,-86.05 -79.02,-86.05 -23.71,0 -43.46,3.51 -55.31,7.9 -5.71,2.2 -6.59,4.83 -6.14,10.54l2.19 13.61c0.44,3.51 1.76,5.71 5.27,5.71 5.7,0 27.22,-6.59 50.92,-6.59 35.12,0 46.97,10.09 46.97,53.99 0,4.39 -1.75,6.59 -6.14,6.59l-41.27 0c-47.85,0 -69.8,18.88 -69.8,65.85 0,51.36 17.12,72.43 61.02,72.43zm-27.22 -72.43c0,-28.54 11.85,-37.76 43.9,-37.76l35.12 0c3.07,0 4.83,1.32 4.83,5.27l0 25.46c0,29.85 -16.24,50.04 -48.29,50.04 -24.15,0 -35.56,-8.78 -35.56,-43.02z"/> <path id="_2_6" class="fil3" d="M1713.31 3078.61c8.78,0 19.32,-0.88 30.29,-4.39 5.27,-1.76 7.46,-3.95 6.59,-8.78l-2.2 -17.56c0,-3.07 -1.75,-4.83 -4.39,-4.83 -3.95,0 -12.73,2.64 -25.9,2.64 -24.58,0 -30.73,-7.9 -30.73,-28.54l0 -130.38c0,-2.2 1.32,-3.51 3.51,-3.51l47.85 0c3.51,0 5.27,-2.2 5.27,-5.27l0 -20.63c0,-3.51 -2.2,-5.27 -5.27,-5.27l-45.95 0c-3.95,0 -6.15,-1.32 -6.59,-5.27l-2.2 -33.36c-1.03,-4.39 -2.78,-7.02 -7.61,-7.02l-19.32 0c-3.07,0 -4.83,2.19 -4.83,4.83l0 208.08c0,40.83 12.29,59.27 61.46,59.27z"/> <path id="_3_7" class="fil3" d="M1846.33 3078.61c31.17,0 46.98,-14.93 54.88,-25.02 3.07,-4.39 3.51,-5.27 5.27,-5.27 0.88,0 1.76,0.44 1.76,3.07l1.75 19.76c0.44,2.63 2.63,3.95 6.14,3.95l16.68 0c3.07,0 4.83,-2.2 4.83,-4.39l0 -136.09c0,-68.48 -24.14,-86.05 -79.02,-86.05 -23.71,0 -43.46,3.51 -55.31,7.9 -5.71,2.2 -6.59,4.83 -6.14,10.54l2.19 13.61c0.44,3.51 1.76,5.71 5.27,5.71 5.7,0 27.22,-6.59 50.92,-6.59 35.12,0 46.97,10.09 46.97,53.99 0,4.39 -1.75,6.59 -6.14,6.59l-41.27 0c-47.85,0 -69.8,18.88 -69.8,65.85 0,51.36 17.12,72.43 61.02,72.43zm-27.22 -72.43c0,-28.54 11.85,-37.76 43.9,-37.76l35.12 0c3.07,0 4.83,1.32 4.83,5.27l0 25.46c0,29.85 -16.24,50.04 -48.29,50.04 -24.15,0 -35.56,-8.78 -35.56,-43.02z"/> <path id="_4_8" class="fil3" d="M2063.2 3078.61c8.78,0 19.32,-0.88 30.29,-4.39 5.27,-1.76 7.46,-3.95 6.59,-8.78l-2.2 -17.56c0,-3.07 -1.75,-4.83 -4.39,-4.83 -3.95,0 -12.73,2.64 -25.9,2.64 -24.59,0 -30.73,-7.9 -30.73,-28.54l0 -130.38c0,-2.2 1.32,-3.51 3.51,-3.51l47.85 0c3.51,0 5.27,-2.2 5.27,-5.27l0 -20.63c0,-3.51 -2.2,-5.27 -5.27,-5.27l-45.95 0c-3.95,0 -6.15,-1.32 -6.59,-5.27l-2.2 -33.36c-1.03,-4.39 -2.78,-7.02 -7.61,-7.02l-19.32 0c-3.07,0 -4.83,2.19 -4.83,4.83l0 208.08c0,40.83 12.29,59.27 61.46,59.27z"/> <path id="_5_9" class="fil3" d="M2196.21 3078.61c31.17,0 46.98,-14.93 54.88,-25.02 3.07,-4.39 3.51,-5.27 5.27,-5.27 0.88,0 1.76,0.44 1.76,3.07l1.75 19.76c0.44,2.63 2.63,3.95 6.14,3.95l16.68 0c3.07,0 4.83,-2.2 4.83,-4.39l0 -136.09c0,-68.48 -24.14,-86.05 -79.02,-86.05 -23.71,0 -43.46,3.51 -55.31,7.9 -5.71,2.2 -6.59,4.83 -6.14,10.54l2.19 13.61c0.44,3.51 1.76,5.71 5.27,5.71 5.7,0 27.22,-6.59 50.92,-6.59 35.12,0 46.97,10.09 46.97,53.99 0,4.39 -1.75,6.59 -6.14,6.59l-41.27 0c-47.85,0 -69.8,18.88 -69.8,65.85 0,51.36 17.12,72.43 61.02,72.43zm-27.22 -72.43c0,-28.54 11.85,-37.76 43.9,-37.76l35.12 0c3.07,0 4.83,1.32 4.83,5.27l0 25.46c0,29.85 -16.24,50.04 -48.29,50.04 -24.15,0 -35.56,-8.78 -35.56,-43.02z"/> <path id="_6_10" class="fil3" d="M2356.44 3075.09l25.47 0c3.07,0 4.83,-2.2 4.83,-4.39l0 -161.55c0,-22.82 7.9,-28.53 27.66,-28.53 10.98,0 29.42,2.64 32.05,2.64 3.51,0 5.27,-1.76 5.71,-5.27l1.32 -12.74c0.88,-7.46 0,-10.09 -7.46,-12.29 -6.59,-1.75 -20.19,-4.39 -39.51,-4.39 -40.83,0 -54.88,15.8 -54.88,57.95l0 164.18c0,2.2 1.75,4.39 4.83,4.39z"/> <path id="_7" class="fil3" d="M2501.75 3075.09l25.46 0c3.52,0 5.27,-1.75 5.27,-5.27l0 -212.47c0,-3.51 -2.2,-5.27 -5.27,-5.27l-24.58 0c-3.51,0 -5.27,1.75 -5.27,5.27l0 212.47c0,3.51 1.76,5.27 4.39,5.27zm-5.27 -260.32c0,3.51 1.75,5.7 5.27,5.7l26.34 0c3.52,0 5.27,-2.2 5.27,-5.7l0 -41.7c0,-3.51 -2.19,-5.27 -5.27,-5.27l-26.34 0c-3.51,0 -5.27,1.75 -5.27,5.27l0 41.7z"/> <path id="_8" class="fil3" d="M2649.25 3078.61c31.17,0 46.98,-14.93 54.88,-25.02 3.07,-4.39 3.51,-5.27 5.27,-5.27 0.88,0 1.76,0.44 1.76,3.07l1.75 19.76c0.44,2.63 2.63,3.95 6.14,3.95l16.68 0c3.07,0 4.83,-2.2 4.83,-4.39l0 -136.09c0,-68.48 -24.14,-86.05 -79.02,-86.05 -23.71,0 -43.46,3.51 -55.31,7.9 -5.71,2.2 -6.59,4.83 -6.14,10.54l2.19 13.61c0.44,3.51 1.76,5.71 5.27,5.71 5.7,0 27.22,-6.59 50.92,-6.59 35.12,0 46.97,10.09 46.97,53.99 0,4.39 -1.75,6.59 -6.14,6.59l-41.27 0c-47.85,0 -69.8,18.88 -69.8,65.85 0,51.36 17.12,72.43 61.02,72.43zm-27.22 -72.43c0,-28.54 11.85,-37.76 43.9,-37.76l35.12 0c3.07,0 4.83,1.32 4.83,5.27l0 25.46c0,29.85 -16.24,50.04 -48.29,50.04 -24.15,0 -35.56,-8.78 -35.56,-43.02z"/> <path id="_9" class="fil3" d="M1146.99 3407.04c21.72,0 40.06,-3.75 47.93,-7.49 4.12,-1.87 6.37,-5.62 5.24,-10.49l-2.24 -10.49c-0.75,-2.99 -2.25,-4.49 -4.87,-4.49 -4.87,0 -21.71,6.74 -43.43,6.74 -33.7,0 -47.18,-9.36 -47.18,-55.04l0 -2.99c0,-1.12 0.75,-1.87 2.24,-1.87l85 0c11.61,0 16.85,-4.87 16.85,-16.48l0 -9.73c0,-61.78 -19.47,-83.5 -64.03,-83.5 -46.81,0 -70.03,18.34 -70.03,97.73 0,78.26 21.71,98.1 74.51,98.1zm-44.56 -111.96c0,-47.93 13.48,-57.66 40.44,-57.66 23.96,0 36.32,8.98 36.32,58.04 0,1.5 -0.38,2.24 -1.87,2.24l-72.27 0c-1.87,0 -2.62,-0.75 -2.62,-2.62z"/> <path id="_10" class="fil3" d="M1391.12 3475.56c56.16,0 73.39,-26.59 73.39,-74.14l0 -182.73c0,-3 -1.5,-4.49 -4.49,-4.49l-7.86 0c-3.75,0 -6.37,1.12 -8.24,5.24l-2.62 11.23c-0.75,3.37 -1.5,2.62 -3.74,-0.38 -8.99,-11.98 -23.96,-19.09 -45.68,-19.09 -50.55,0 -68.52,25.83 -68.52,92.11 0,74.14 23.59,94.36 65.53,94.36 24.34,0 35.95,-8.61 44.93,-19.1l0.75 0 0 20.59c0,32.58 -5.99,49.8 -46.06,49.8 -18.34,0 -36.69,-4.12 -41.56,-4.12 -3.37,0 -4.49,1.87 -4.87,5.24l-1.5 12.36c-0.75,4.49 0.37,6.36 4.12,7.86 5.99,1.87 22.46,5.24 46.43,5.24zm-37.07 -172.24c0,-51.3 12.35,-64.78 43.43,-64.78 25.08,0 37.07,13.86 37.07,32.58l0 54.67c0,17.97 -3.37,26.96 -7.49,31.45 -6.74,7.12 -14.98,12.73 -33.33,12.73 -24.34,0 -39.69,-13.1 -39.69,-66.65z"/> <path id="_11" class="fil3" d="M1581.71 3407.41c53.92,0 70.03,-24.34 70.03,-98.85 0,-73.39 -16.11,-97.35 -70.03,-97.35 -53.92,0 -70.02,23.96 -70.02,97.35 0,74.51 16.1,98.85 70.02,98.85zm-39.32 -98.85c0,-56.91 9.36,-70.02 39.32,-70.02 30.33,0 39.32,13.48 39.32,70.02 0,57.29 -8.99,71.52 -39.32,71.52 -30.33,0 -39.32,-14.23 -39.32,-71.52z"/> <path id="_12" class="fil3" d="M1740.85 3407.41c49.05,0 66.27,-20.22 66.27,-56.54 0,-27.33 -11.23,-37.44 -37.81,-50.17l-21.34 -10.11c-19.47,-9.36 -29.21,-14.6 -29.21,-31.45 0,-17.97 14.23,-22.09 34.82,-22.09 17.23,0 36.32,2.62 41.56,2.62 3.37,0 4.12,-1.5 4.49,-4.49l1.87 -12.35c0.37,-4.12 -0.75,-6.37 -4.49,-7.49 -7.11,-2.25 -24.71,-4.12 -46.06,-4.12 -40.44,0 -61.78,11.61 -61.78,46.43 0,32.2 14.23,41.94 35.57,52.42l24.71 12.35c20.97,10.49 28.08,14.98 28.08,31.08 0,16.85 -8.98,28.08 -38.19,28.08 -21.72,0 -37.82,-3 -42.31,-3 -2.62,0 -3.74,1.5 -3.74,3.75l-1.5 13.86c-0.38,4.12 0.75,6.74 5.61,7.86 7.12,1.5 25.09,3.37 43.43,3.37z"/> <path id="_13" class="fil3" d="M1902.23 3407.41c7.49,0 16.48,-0.75 25.84,-3.74 4.49,-1.5 6.37,-3.37 5.62,-7.49l-1.87 -14.98c0,-2.62 -1.5,-4.12 -3.75,-4.12 -3.37,0 -10.86,2.24 -22.09,2.24 -20.97,0 -26.21,-6.74 -26.21,-24.34l0 -111.21c0,-1.87 1.12,-2.99 2.99,-2.99l40.81 0c3,0 4.49,-1.87 4.49,-4.49l0 -17.6c0,-3 -1.87,-4.49 -4.49,-4.49l-39.19 0c-3.37,0 -5.24,-1.12 -5.62,-4.49l-1.87 -28.45c-0.88,-3.75 -2.37,-5.99 -6.49,-5.99l-16.48 0c-2.62,0 -4.12,1.87 -4.12,4.12l0 177.48c0,34.82 10.49,50.55 52.42,50.55z"/> <path id="_14" class="fil3" d="M2034.03 3407.41c53.92,0 70.03,-24.34 70.03,-98.85 0,-73.39 -16.11,-97.35 -70.03,-97.35 -53.92,0 -70.02,23.96 -70.02,97.35 0,74.51 16.1,98.85 70.02,98.85zm-39.32 -98.85c0,-56.91 9.36,-70.02 39.32,-70.02 30.33,0 39.32,13.48 39.32,70.02 0,57.29 -8.99,71.52 -39.32,71.52 -30.33,0 -39.32,-14.23 -39.32,-71.52z"/> <path id="_15" class="fil3" d="M2193.17 3407.41c49.05,0 66.27,-20.22 66.27,-56.54 0,-27.33 -11.23,-37.44 -37.81,-50.17l-21.34 -10.11c-19.47,-9.36 -29.21,-14.6 -29.21,-31.45 0,-17.97 14.23,-22.09 34.82,-22.09 17.23,0 36.32,2.62 41.56,2.62 3.37,0 4.12,-1.5 4.49,-4.49l1.87 -12.35c0.37,-4.12 -0.75,-6.37 -4.49,-7.49 -7.11,-2.25 -24.71,-4.12 -46.06,-4.12 -40.44,0 -61.78,11.61 -61.78,46.43 0,32.2 14.23,41.94 35.57,52.42l24.71 12.35c20.97,10.49 28.08,14.98 28.08,31.08 0,16.85 -8.98,28.08 -38.19,28.08 -21.72,0 -37.82,-3 -42.31,-3 -2.62,0 -3.74,1.5 -3.74,3.75l-1.5 13.86c-0.38,4.12 0.75,6.74 5.61,7.86 7.12,1.5 25.09,3.37 43.43,3.37z"/> <path id="_16" class="fil3" d="M2368.41 3407.41c49.8,0 65.53,-17.97 65.53,-73.76l0 -114.95c0,-3 -1.5,-4.49 -4.49,-4.49l-20.97 0c-2.99,0 -4.49,1.5 -4.49,4.49l0 119.45c0,34.07 -8.99,41.94 -35.58,41.94 -26.59,0 -36.32,-7.86 -36.32,-41.94l0 -119.45c0,-3 -1.5,-4.49 -4.49,-4.49l-20.97 0c-3,0 -4.49,1.5 -4.49,4.49l0 114.95c0,55.79 15.73,73.76 66.27,73.76z"/> <path id="_17" class="fil3" d="M2492.72 3404.42l21.72 0c2.62,0 4.12,-1.87 4.12,-3.75l0 -137.79c0,-19.47 6.74,-24.34 23.59,-24.34 9.36,0 25.09,2.25 27.33,2.25 3,0 4.49,-1.5 4.87,-4.49l1.12 -10.86c0.75,-6.37 0,-8.61 -6.36,-10.49 -5.62,-1.5 -17.23,-3.74 -33.7,-3.74 -34.83,0 -46.81,13.48 -46.81,49.43l0 140.04c0,1.87 1.5,3.75 4.12,3.75z"/> <path id="_18" class="fil3" d="M2656.35 3407.41c26.59,0 40.06,-12.73 46.8,-21.34 2.62,-3.75 3,-4.49 4.49,-4.49 0.75,0 1.5,0.37 1.5,2.62l1.5 16.85c0.38,2.24 2.25,3.37 5.24,3.37l14.23 0c2.62,0 4.12,-1.87 4.12,-3.75l0 -116.08c0,-58.41 -20.59,-73.38 -67.4,-73.38 -20.22,0 -37.07,2.99 -47.18,6.74 -4.87,1.87 -5.61,4.12 -5.24,8.98l1.87 11.61c0.38,3 1.5,4.87 4.49,4.87 4.87,0 23.22,-5.62 43.43,-5.62 29.96,0 40.06,8.61 40.06,46.06 0,3.75 -1.5,5.62 -5.24,5.62l-35.2 0c-40.81,0 -59.53,16.1 -59.53,56.16 0,43.81 14.6,61.78 52.05,61.78zm-23.22 -61.78c0,-24.34 10.11,-32.2 37.44,-32.2l29.96 0c2.62,0 4.12,1.12 4.12,4.49l0 21.72c0,25.46 -13.86,42.69 -41.19,42.69 -20.59,0 -30.33,-7.49 -30.33,-36.69z"/> <path id="_19" class="fil3" d="M2832.34 3407.41c49.05,0 66.27,-20.22 66.27,-56.54 0,-27.33 -11.23,-37.44 -37.81,-50.17l-21.34 -10.11c-19.47,-9.36 -29.21,-14.6 -29.21,-31.45 0,-17.97 14.23,-22.09 34.82,-22.09 17.23,0 36.32,2.62 41.56,2.62 3.37,0 4.12,-1.5 4.49,-4.49l1.87 -12.35c0.37,-4.12 -0.75,-6.37 -4.49,-7.49 -7.11,-2.25 -24.71,-4.12 -46.06,-4.12 -40.44,0 -61.78,11.61 -61.78,46.43 0,32.2 14.23,41.94 35.57,52.42l24.71 12.35c20.97,10.49 28.08,14.98 28.08,31.08 0,16.85 -8.98,28.08 -38.19,28.08 -21.72,0 -37.82,-3 -42.31,-3 -2.62,0 -3.74,1.5 -3.74,3.75l-1.5 13.86c-0.38,4.12 0.75,6.74 5.61,7.86 7.12,1.5 25.09,3.37 43.43,3.37z"/> <path class="fil4" d="M229.11 1637.29c-49.03,239.46 -63.92,487.67 -14.18,739.77 14.23,72.12 43,153.58 53.4,219.3 -31.58,-46.69 -77,-224.27 -90.38,-294.83 -84.04,-443.41 -2.6,-873.26 243.74,-1240.16 28.1,-41.85 52.51,-73.26 82.29,-113.6 123.9,-167.81 337.57,-353.96 512.83,-459.6 736.25,-443.81 1524.2,-376.98 2206.85,118.91 32.95,23.94 86.43,74.49 111.38,86.05 -34.3,-55.68 -245.65,-199.52 -312.58,-240.81 -398.06,-245.62 -871.48,-333.39 -1349.57,-262.37 -352.21,52.32 -614.6,210.36 -857.61,381.46 -13.43,9.46 -26.35,18.94 -37.49,27.66 -14.92,11.68 -24.45,22.63 -37.68,33.49 -73.54,60.34 -206.39,213.72 -264.73,292.79 -214.28,290.44 -351.43,631.67 -353.37,1031.1 -2.01,415.35 117.73,748.75 344.32,1040.23l46.86 55.65c20.57,16.08 48.66,6.05 14.24,-39.11 -8.82,-11.57 -20.58,-30.16 -29.19,-41.73 -80.93,-108.79 -128.83,-223.04 -190.58,-361.3 -55.71,-124.74 -89.47,-303 -101.27,-452.37 -7.03,-89.05 -7.94,-183.35 -3.82,-272.66 5.49,-119.18 20.54,-166.8 26.51,-247.88z"/> <path class="fil5" d="M565.24 3161.27c57.2,78.68 241.39,225.98 331.64,288.48 429,297.05 947.19,400.24 1483.76,298.5 166.2,-31.52 328,-90.93 463.77,-157.95 239.94,-118.44 518.38,-348.34 667.94,-570.64 54.36,-80.81 199.89,-300.6 214.3,-396.1 -3.29,61.61 -185.4,336.7 -224.92,385.18 -69.85,85.68 -172.9,201.97 -260.47,279.13 -111.7,98.42 -255.7,197.71 -411.22,270.7 -709.86,333.16 -1518.16,236.35 -2109.26,-253.02 -75.88,-62.82 -100,-95.09 -155.53,-144.26z"/> <path class="fil5" d="M3842.58 2066.89c20.54,-7.69 14.82,-39.01 14.55,-62.98 -1.91,-170.53 -17.68,-313.8 -61.7,-479.91 -67.85,-256.08 -166.65,-416.71 -319.38,-606.03 -117.93,-146.18 -341.04,-324.37 -521.08,-399.75 324.31,180.35 580.31,445.95 729.12,790.14 79.68,184.3 105.05,272.38 133.9,476.78 6.09,43.1 14.13,268.38 24.59,281.76z"/> <path class="fil4" d="M1813.64 1112.47c3.68,-9.26 18.34,-13.21 29.45,-16.2 -6.16,9.06 -19.59,16.59 -29.45,16.2zm-10.81 -12.1c6.24,-8.97 11.1,-10.91 23.59,-17.04 3.3,-1.62 11.67,-5.66 14.91,-6.63l16.42 -0.46c-6.99,8.37 -44.51,26.23 -54.92,24.13zm-4.59 -17.79c10.99,-10.46 40.83,-27.64 55,-24.15 -9.99,11.54 -41.76,27.1 -55,24.15zm64.91 -99.53c-15.46,-37.56 -34.11,-77.31 -51.15,-115.4 -12.24,-27.36 -43.66,-89.23 -48.6,-114.94l46.94 -16.16 88.79 234.56 -35.98 11.94zm215.35 -53.98c-18.95,-74.64 -17.68,-174.54 -30.69,-249.32l39.55 -11.18 24.13 260.21 -32.99 0.28zm-158.2 -235.35l33.06 -8.49c15.77,28.91 43.29,206.02 56.29,255.81l-34.5 7.85 -54.85 -255.18zm-249.67 86.61c22.73,37.96 43.69,77.25 64.9,114.82 14.45,25.6 55.68,94.48 61.89,117.03l-25.27 13.63c-10.72,-9.18 -126.72,-204.07 -137.28,-227.84l35.76 -17.64zm-86.17 -252.37c-62.33,20.68 -108.16,38.25 -147.31,81.41 -132.49,146.04 -18.13,334.71 155.71,300.59l-56.85 -94.78 24.69 -0.93c100.56,151.79 138.54,233.23 207.15,400.92 56.69,-21.59 69.57,-56.04 219.76,-99.16 42.27,-12.14 83.53,-21.49 126.09,-27.33 26.91,-3.69 93.2,-2.39 108.57,-7.07 -31.8,-143.02 -58.56,-310.79 -63.33,-450.62l26.18 -10.49 6.16 106.08c99.24,-24.06 162.83,-151.67 88.88,-258.7 -89.49,-129.52 -286.49,-63.07 -286.55,-63.08 -17.28,-8.53 -32.07,-24.86 -48.22,-33.85 -98.56,-54.82 -271.79,-21.84 -340.34,104.18 -11.06,20.32 -12,29.84 -20.57,52.82z"/> </g> </g> </svg>