<?xml version="1.0" encoding="UTF-8"?> <!DOCTYPE svg PUBLIC "-//W3C//DTD SVG 1.1//EN" "http://www.w3.org/Graphics/SVG/1.1/DTD/svg11.dtd"> <svg xmlns="http://www.w3.org/2000/svg" xml:space="preserve" width="135.462mm" height="68.8429mm" version="1.1" style="shape-rendering:geometricPrecision; text-rendering:geometricPrecision; image-rendering:optimizeQuality; fill-rule:evenodd; clip-rule:evenodd" viewBox="0 0 12710.73 6459.71" xmlns:xlink="http://www.w3.org/1999/xlink" xmlns:xodm="http://www.corel.com/coreldraw/odm/2003"> <defs> <style type="text/css"> <![CDATA[ .str0 {stroke:#FAA831;stroke-width:7.15;stroke-miterlimit:10} .fil3 {fill:#FAA832;fill-rule:nonzero} .fil2 {fill:#FAA832;fill-rule:nonzero} .fil0 {fill:#F1613A;fill-rule:nonzero} .fil1 {fill:#19A999;fill-rule:nonzero} ]]> </style> </defs> <g id="Camada_x0020_1"> <metadata id="CorelCorpID_0Corel-Layer"/> <path class="fil0" d="M9524.03 6425.56l-181.64 0c9.24,-144.3 14.05,-308.89 14.05,-494.14 0,-208.14 -11.64,-383.07 -35.3,-524.41l200.84 -29.15c-7.88,150.57 -11.99,335.09 -11.99,553.57 0,173.07 4.79,337.67 14.05,494.14zm42.16 -1351.42c0,36.53 -10.97,68.64 -33.24,95.58 -21.93,26.94 -53.12,40.59 -93.22,40.59 -34.28,0 -60.66,-11.8 -79.86,-35.06 -19.19,-23.62 -28.78,-51.66 -28.78,-84.88 0,-36.16 11.64,-67.53 34.27,-94.1 22.61,-26.57 54.15,-39.85 94.25,-39.85 32.91,0 58.96,11.44 78.14,35.06 18.86,23.25 28.45,50.92 28.45,82.67zm1110.11 1350.32l-149.44 5.54c-5.48,-31 -8.22,-63.84 -8.22,-98.53l-10.97 0c-70.26,82.29 -174.79,123.26 -313.26,123.26 -127.14,0 -228.59,-49.82 -303.65,-149.09 -75.39,-99.64 -113.1,-219.58 -113.1,-360.19 0,-159.06 41.81,-296.34 125.44,-411.85 83.62,-115.14 201.52,-173.07 353.69,-173.07 108.31,0 186.1,23.98 232.71,71.59l8.23 0c0,-178.99 -4.79,-354.28 -14.05,-526.63l190.56 -7.75c-12.69,183.05 -18.85,422.92 -18.85,719.26 0,301.14 6.85,570.16 20.91,807.46zm-161.78 -212.93c0,-224.38 -5.48,-439.9 -16.79,-647.67 -54.5,-48.34 -122.01,-72.33 -202.89,-72.33 -113.11,0 -197.75,40.59 -253.97,121.41 -56.21,81.19 -84.31,183.05 -84.31,305.57 0,109.61 26.39,201.86 79.51,276.78 53.47,74.92 127.14,112.56 221.4,112.56 118.59,0 204.27,-32.11 257.05,-96.32zm1210.18 -420.71c0,30.26 -1.37,72.34 -4.11,125.47l-689.58 12.92c6.51,105.18 44.56,193.37 113.44,264.6 68.9,70.85 160.06,106.28 274.19,106.28 101.45,0 197.08,-13.29 285.83,-39.86l-16.79 152.41c-65.8,28.06 -160.4,42.07 -284.13,42.07 -174.11,0 -306.75,-51.3 -398.25,-153.52 -91.51,-102.22 -137.09,-226.96 -137.09,-374.2 0,-156.84 41.81,-292.28 125.1,-405.95 83.29,-113.29 195.36,-170.13 335.87,-170.13 129.21,0 227.23,40.97 294.75,123.26 67.17,81.93 100.76,187.84 100.76,316.64zm-167.59 2.21c0,-202.6 -78.83,-303.72 -236.14,-303.72 -160.39,0 -255.34,105.18 -284.12,315.53l520.25 -11.81zm1153.63 632.53l-157.66 6.64c-7.88,-35.43 -11.99,-69.01 -11.99,-100.75l-9.95 0c-82.59,80.82 -194.67,121.04 -336.56,121.04 -77.11,0 -143.25,-24.36 -198.78,-73.07 -55.52,-48.34 -83.29,-117.72 -83.29,-208.14 0,-110.71 43.53,-200.02 130.59,-267.55 87.05,-67.17 248.48,-102.6 484.95,-106.28 2.05,-17.35 3.09,-37.27 3.09,-59.41 0,-88.94 -21.93,-147.98 -65.8,-177.51 -43.87,-29.52 -110.36,-44.28 -199.47,-44.28 -105.21,0 -208.37,14.02 -310.16,42.07l17.13 -149.09c100.42,-31 215.92,-46.49 346.16,-46.49 119.27,0 211.46,26.56 276.24,79.34 64.77,53.15 97.32,143.56 97.32,270.88 0,33.96 -1.36,95.59 -4.45,184.52 -3.09,88.94 -4.46,148.36 -4.46,177.88 0,131.01 8.9,248 27.08,350.22zm-177.88 -209.61c-3.09,-109.61 -4.8,-208.14 -4.8,-295.23 -125.78,0 -221.74,9.97 -287.2,30.26 -109.68,36.16 -164.85,104.81 -164.85,206.29 0,98.17 64.43,147.25 192.96,147.25 110.36,0 198.45,-29.53 263.9,-88.57z"/> <path class="fil1" d="M3718.61 2214.77c0,27.32 105.22,1042.19 601.56,1695.25 23.38,30.78 23.51,75.48 -27.35,109.39 -32.14,21.4 -85.94,30.71 -109.35,0 -414.24,-543.75 -574.2,-1312.46 -628.91,-1640.58l-273.4 191.38c-27.36,27.35 -82.04,27.35 -109.39,0l54.68 300.79c6.92,38.01 -2.81,64.78 -54.68,82.03 -36.65,12.21 -86.19,3.58 -109.38,-27.35l-82.03 -109.38 54.7 218.76c13.28,53 -27.38,82.07 -54.7,109.35 -27.32,27.32 -85.26,2.84 -109.35,-27.32l-109.38 -136.73 54.68 191.41c15.01,52.55 -20.09,92.11 -54.68,109.38 -24.44,12.21 -87.97,4.85 -109.38,-27.35l-164.06 -246.09 0 82.03c0,27.32 -3.91,67.98 -27.32,82.03l-273.44 164.06c628.88,328.11 1257.79,1121.05 1285.1,1148.4 27.35,54.68 27.35,109.39 -27.31,136.7 -27.36,27.36 -82.03,27.36 -109.39,-27.31 -27.35,0 -716.42,-888.14 -1367.13,-1148.41 -35.92,-14.34 -54.71,-54.7 -54.71,-82.03 0,-27.35 23.78,-58.83 54.71,-82.03l328.11 -246.09 0 -300.79c0,-27.32 17.99,-69.82 54.68,-82.03 51.86,-17.27 85.23,-2.81 109.38,27.35l109.35 136.7 -54.68 -218.73c-13.24,-53.02 27.35,-82.06 54.68,-109.38 27.32,-27.32 86.16,-3.56 109.38,27.35l82.03 109.38 -54.68 -164.06c-17.27,-51.9 20.09,-92.11 54.68,-109.38 24.44,-12.21 87.94,-4.81 109.38,27.35l109.35 164.06 -27.35 -246.09c-6.01,-54.39 -3.29,-90.07 54.7,-109.38 25.94,-8.62 84.62,-2.33 109.38,27.35l136.7 164.06 328.12 -218.76c27.35,-27.32 47.43,-17.25 82.03,0 24.44,12.21 54.67,27.35 54.67,54.7z"/> <path class="fil2" d="M1859.31 1449.16c-812.61,568.8 -1034.86,1674.28 -480.78,2492.37 413.44,612.45 730.41,835.82 1396.72,1152.15 281.97,133.21 576.05,241.76 861.34,374.88 82.03,27.35 164.07,0 191.42,-82.03 27.35,-82.03 0,-164.06 -54.68,-191.42 -307.45,-115.29 -608.18,-246.21 -906.87,-382.33 -661.46,-302.15 -839.09,-447.64 -1246.26,-1041.16 -467.28,-681.16 -297.73,-1618.09 403.17,-2076.38 664.33,-478.32 1586.9,-336.83 2064.96,324.01 434.46,599.68 587.31,1131.26 587.31,1870.16 0,92.45 -5.74,268.76 0,676.82 0.84,61.21 82.03,136.7 164.06,136.7 81.1,0 136.7,-86.51 136.7,-164.06 -0.45,-7.46 -27.35,-868.98 -27.35,-902.31 -55,-678.54 -200.23,-1223.13 -607.3,-1768.43 -583.31,-782.44 -1677.65,-982.34 -2482.44,-418.99z"/> <path class="fil3" d="M1695.25 1148.4c54.68,-27.35 54.68,-109.38 27.36,-164.06l-300.8 -437.49c-54.68,-54.68 -109.35,-54.68 -164.06,-27.36 -54.68,54.71 -82.03,109.39 -27.32,164.07l300.76 437.49c27.35,54.68 109.39,82.03 164.06,27.35z"/> <path class="fil3" d="M2953.01 765.58c27.35,0 54.7,0 54.7,-27.32 54.68,0 54.68,-54.7 54.68,-82.03l27.35 -519.52c0,-82.03 -54.68,-136.7 -136.73,-136.7 -54.68,0 -109.35,54.68 -109.35,109.34l0 546.88c0,54.68 27.35,109.35 109.35,109.35z"/> <path class="fil3" d="M4374.85 1175.72l300.79 -437.47c54.68,-54.7 27.32,-136.73 -27.35,-164.06 -54.68,-54.71 -109.38,-27.35 -164.06,27.32l-300.76 410.14c-54.7,54.7 -27.35,136.73 27.32,191.41 27.35,27.35 82.03,27.35 136.73,0 0,-27.35 0,-27.35 27.32,-27.35z"/> <path class="fil3 str0" d="M5550.61 1941.33l-492.18 164.06c-54.67,27.35 -109.38,82.03 -82.03,164.06 27.36,54.68 82.03,82.03 164.06,54.68l492.18 -164.06c27.35,0 27.35,0 27.35,0 54.68,-27.32 54.68,-109.35 54.68,-136.7 -27.35,-82.03 -82.03,-109.38 -164.06,-82.03z"/> <path class="fil3" d="M656.23 2324.12c27.32,27.35 54.68,27.35 109.35,0 0,-27.32 27.35,-27.32 27.35,-54.68 27.35,-82.03 0,-136.7 -54.68,-164.06l-519.52 -191.41c-54.68,0 -109.39,27.35 -136.7,82.03 -27.36,54.7 0,136.73 54.67,164.06l519.53 164.06z"/> <path class="fil3" d="M601.52 3499.87l-519.49 136.7c-54.71,27.35 -82.03,82.03 -82.03,136.73 27.31,82.03 82.03,109.35 164.06,82.03l492.17 -136.73c27.32,0 27.32,0 54.68,0 27.35,-27.32 54.68,-82.03 27.35,-136.7 0,-54.68 -82.03,-109.38 -136.73,-82.03z"/> <path class="fil3" d="M1312.46 4702.95l-355.47 410.14c-27.35,54.71 -27.35,136.74 27.35,164.06 54.68,27.36 109.35,27.36 136.7,0 27.35,0 27.35,0 27.35,0l328.11 -410.14c54.68,-54.67 54.68,-136.7 0,-191.37 -54.7,-27.35 -136.73,-27.35 -164.06,27.31z"/> <path class="fil3" d="M5249.85 4784.97l-1421.85 1203.11c-46.63,39.47 -70.57,120.85 -27.35,164.06 43.21,43.21 105.51,50.47 164.06,0 470.24,-405.37 947.92,-802.07 1421.85,-1203.11 46.66,-39.46 70.56,-120.85 27.35,-164.06 -43.21,-43.21 -109.38,-54.67 -164.06,0z"/> <path class="fil3" d="M5413.91 5031.06l-1421.85 1203.11c-46.63,39.47 -46.41,102.21 0,164.06 36.65,48.9 92.94,69.98 136.7,27.32 18.57,-18.09 1313.46,-1090.89 1449.2,-1203.07 47.09,-38.95 43.21,-120.85 0,-164.06 -43.21,-43.21 -117.53,-66.72 -164.06,-27.36z"/> <path class="fil3" d="M4374.85 6452.91c37.14,37.14 239.4,-88.97 273.44,-109.38l0 27.35 0 0c82.03,82.03 266.89,18.18 492.17,-136.7 212.54,-146.13 337.42,-367.42 300.77,-410.14l-27.32 0c23.12,-18.5 231.01,-179.14 191.38,-218.76l-136.7 -218.73 -1148.41 984.34 54.68 82.03z"/> <path class="fil1" d="M6711.24 3628.06c0,219.64 -67.41,391.52 -202.68,515.18 -134.82,124.1 -294.19,185.71 -477.22,185.71 -174.56,0 -324.11,-56.25 -448.66,-169.2 -124.55,-112.95 -187.06,-271.87 -187.06,-476.78 0,-220.53 67.86,-393.3 204.02,-517.85 136.16,-124.99 295.54,-187.05 478.56,-187.05 173.67,0 322.77,56.69 446.87,170.53 124.11,113.84 186.16,273.66 186.16,479.46zm-341.07 39.29c0,-126.34 -29.9,-232.58 -88.83,-318.75 -59.38,-85.71 -136.61,-128.57 -231.7,-128.57 -92.41,0 -167.41,40.18 -225.44,120.09 -58.04,80.36 -87.05,180.81 -87.05,300.89 0,126.34 29.46,232.59 88.83,318.75 59.38,85.72 136.61,128.57 231.7,128.57 92.41,0 167.41,-40.18 225.44,-120.09 58.04,-80.36 87.05,-180.81 87.05,-300.89z"/> <path id="_1" class="fil1" d="M8208.99 3603.06c0,189.29 -54.02,355.35 -162.06,498.21 -108.03,143.3 -255.8,214.73 -443.29,214.73 -139.74,0 -235.27,-29.46 -287.94,-88.84l-15.62 0c0,213.39 3.12,429.91 9.37,648.66l-355.8 0c15.62,-250.44 23.66,-538.83 23.66,-866.07 0,-421.87 -22.77,-743.74 -68.31,-965.16l334.82 -36.61 19.64 112.51 20.98 0c93.31,-86.17 220.09,-129.47 380.8,-129.47 167.42,0 299.55,60.27 397.32,181.26 97.76,120.53 146.43,264.28 146.43,430.79zm-347.77 33.93c0,-109.82 -27.23,-204.46 -82.14,-283.48 -55.35,-79.47 -130.8,-119.2 -227.68,-119.2 -120.53,0 -208.48,35.26 -264.28,105.8 12.95,245.09 19.64,469.64 19.64,673.66 54.91,42.85 125.9,64.28 212.94,64.28 116.07,0 202.24,-42.86 258.04,-129.02 55.8,-85.72 83.47,-189.73 83.47,-312.05z"/> <path id="_2" class="fil1" d="M9221.48 4033.41l-22.32 233.03c-61.16,25.89 -137.94,38.84 -230.36,39.29 -141.07,-0.45 -247.76,-38.4 -319.19,-115.18 -71.43,-76.78 -107.14,-224.55 -107.14,-443.74 0,-131.25 0.89,-280.35 2.67,-446.87 -44.65,0 -104.91,2.22 -180.36,7.58l8.93 -257.58c66.96,5.36 129.46,8.03 187.05,8.03 0.89,-46.43 4.47,-167.86 10.27,-365.18l310.27 -37.95c-13.39,173.67 -19.64,308.03 -19.64,403.12 73.21,0 182.59,-3.58 328.12,-10.72l-10.27 260.26c-132.59,-5.36 -240.17,-7.58 -323.21,-7.58 -1.78,115.62 -2.68,237.49 -2.68,364.73 0,155.35 15.63,259.37 47.33,312.05 31.25,52.68 86.6,79.02 166.06,79.02 47.77,0 99.11,-7.59 154.47,-22.32z"/> <path id="_3" class="fil1" d="M11355.83 4278.05l-346.42 0c18.3,-220.53 27.23,-435.26 27.23,-643.3 0,-156.25 -20.09,-258.48 -60.27,-306.25 -39.73,-47.76 -104.01,-71.87 -191.96,-71.87 -70.53,0 -145.08,25.89 -223.66,77.22 -3.57,108.93 -5.36,206.69 -5.36,292.86 0,145.53 2.68,362.49 8.04,651.33l-350.9 0c19.2,-238.84 29.02,-471.42 29.02,-697.32 0,-116.51 -16.51,-199.99 -49.1,-249.55 -32.6,-49.55 -100.45,-74.55 -203.57,-74.55 -94.65,0 -173.67,31.7 -236.61,95.53 4.47,345.09 6.7,654.01 6.7,925.88l-351.79 0c15.62,-271.87 23.21,-486.61 23.21,-643.3 0,-204.02 -20.98,-400.89 -63.83,-590.17l334.81 -36.61 22.32 138.84 20.98 0c113.4,-103.12 241.07,-154.47 383.03,-154.47 178.12,0 303.12,51.35 375.44,154.47l20.98 0c129.02,-103.12 256.7,-154.47 383.03,-154.47 148.21,0 260.26,32.15 335.7,95.98 75.45,64.28 112.95,180.36 112.95,348.66 0,16.51 -0.89,48.21 -2.67,95.08 -1.78,46.43 -2.68,78.13 -2.68,94.65 0,145.53 1.79,362.49 5.36,651.33z"/> <path id="_4" class="fil1" d="M12710.73 4276.71l-308.48 10.72c-14.28,-37.05 -20.98,-70.08 -20.98,-99.55l-16.96 0c-95.98,81.69 -225.44,122.76 -388.38,122.76 -109.38,0 -199.55,-30.35 -271.43,-90.62 -72.32,-60.71 -108.04,-141.07 -108.04,-241.52 0,-132.59 55.8,-241.07 167.86,-325.44 112.05,-84.82 308.48,-129.47 589.28,-134.82 1.79,-15.63 2.68,-30.81 2.68,-44.65 0,-94.2 -22.77,-156.25 -67.86,-186.16 -45.54,-30.35 -128.57,-45.09 -250,-45.09 -131.69,0 -260.26,17.42 -385.71,52.24l28.57 -240.62c118.75,-41.07 286.16,-61.61 502.23,-61.61 158.03,0 279.9,33.04 365.62,99.56 86.16,66.07 129.02,182.14 129.02,347.76 0,36.6 -1.79,103.12 -4.92,199.99 -2.67,96.88 -4.46,161.61 -4.46,193.75 0,180.36 13.83,328.11 41.96,443.29zm-349.1 -271.87c-5.36,-117.85 -8.04,-219.64 -8.04,-304.91 -297.32,0 -445.98,75.45 -445.98,226.34 0,103.56 65.63,155.35 196.43,155.35 102.68,0 188.39,-25.45 257.59,-76.78z"/> </g> </svg>